<svg width="211" height="56" viewBox="0 0 211 56" fill="none" xmlns="http://www.w3.org/2000/svg">
<path d="M76.61 2.848V32.5H70.688V2.848H76.61ZM96.2473 8.896C98.9353 8.896 101.077 9.778 102.673 11.542C104.269 13.306 105.067 15.784 105.067 18.976V32.5H99.1873V19.648C99.1873 17.8 98.7113 16.372 97.7593 15.364C96.8073 14.328 95.5053 13.81 93.8533 13.81C92.1733 13.81 90.8293 14.356 89.8213 15.448C88.8133 16.54 88.3093 18.108 88.3093 20.152V32.5H82.3873V9.232H88.3093V13.894C88.9253 12.326 89.9333 11.108 91.3333 10.24C92.7613 9.344 94.3993 8.896 96.2473 8.896Z" fill="#4C5354"/>
<path d="M118.72 8.938C121.548 8.938 123.816 9.652 125.524 11.08C127.232 12.508 128.296 14.412 128.716 16.792H123.172C122.948 15.672 122.444 14.776 121.66 14.104C120.876 13.432 119.854 13.096 118.594 13.096C117.586 13.096 116.802 13.334 116.242 13.81C115.682 14.286 115.402 14.93 115.402 15.742C115.402 16.386 115.626 16.904 116.074 17.296C116.522 17.688 117.082 17.996 117.754 18.22C118.426 18.444 119.392 18.71 120.652 19.018C122.416 19.41 123.844 19.83 124.936 20.278C126.056 20.698 127.008 21.384 127.792 22.336C128.604 23.26 129.01 24.52 129.01 26.116C129.01 28.104 128.226 29.714 126.658 30.946C125.118 32.178 123.032 32.794 120.4 32.794C117.376 32.794 114.954 32.122 113.134 30.778C111.314 29.406 110.208 27.46 109.816 24.94H115.486C115.626 26.088 116.13 26.998 116.998 27.67C117.866 28.314 119 28.636 120.4 28.636C121.408 28.636 122.178 28.398 122.71 27.922C123.242 27.418 123.508 26.774 123.508 25.99C123.508 25.318 123.27 24.772 122.794 24.352C122.346 23.932 121.772 23.61 121.072 23.386C120.4 23.162 119.434 22.896 118.174 22.588C116.438 22.196 115.024 21.804 113.932 21.412C112.868 20.992 111.944 20.334 111.16 19.438C110.404 18.542 110.026 17.31 110.026 15.742C110.026 13.726 110.796 12.088 112.336 10.828C113.876 9.568 116.004 8.938 118.72 8.938ZM144.593 8.938C146.861 8.938 148.891 9.414 150.683 10.366C152.503 11.318 153.931 12.704 154.967 14.524C156.003 16.316 156.521 18.43 156.521 20.866C156.521 23.302 156.003 25.416 154.967 27.208C153.931 29 152.503 30.386 150.683 31.366C148.891 32.318 146.861 32.794 144.593 32.794C142.325 32.794 140.281 32.318 138.461 31.366C136.669 30.386 135.255 29 134.219 27.208C133.183 25.416 132.665 23.302 132.665 20.866C132.665 18.43 133.183 16.316 134.219 14.524C135.255 12.704 136.669 11.318 138.461 10.366C140.281 9.414 142.325 8.938 144.593 8.938ZM144.593 14.062C142.941 14.062 141.541 14.65 140.393 15.826C139.245 16.974 138.671 18.654 138.671 20.866C138.671 23.078 139.245 24.772 140.393 25.948C141.541 27.096 142.941 27.67 144.593 27.67C146.245 27.67 147.645 27.096 148.793 25.948C149.941 24.772 150.515 23.078 150.515 20.866C150.515 18.654 149.941 16.974 148.793 15.826C147.645 14.65 146.245 14.062 144.593 14.062ZM171.248 26.578L177.128 9.232H183.428L174.818 32.5H167.594L158.984 9.232H165.326L171.248 26.578ZM209.022 19.984C209.022 20.572 208.952 21.244 208.812 22H191.76C191.844 24.072 192.404 25.598 193.44 26.578C194.476 27.558 195.764 28.048 197.304 28.048C198.676 28.048 199.81 27.712 200.706 27.04C201.63 26.368 202.218 25.458 202.47 24.31H208.728C208.42 25.934 207.762 27.39 206.754 28.678C205.746 29.966 204.444 30.974 202.848 31.702C201.28 32.43 199.53 32.794 197.598 32.794C195.33 32.794 193.314 32.318 191.55 31.366C189.786 30.386 188.414 29 187.434 27.208C186.454 25.416 185.964 23.302 185.964 20.866C185.964 18.43 186.454 16.316 187.434 14.524C188.414 12.704 189.786 11.318 191.55 10.366C193.314 9.414 195.33 8.938 197.598 8.938C199.894 8.938 201.896 9.414 203.604 10.366C205.34 11.318 206.67 12.634 207.594 14.314C208.546 15.966 209.022 17.856 209.022 19.984ZM203.058 19.396C203.142 17.492 202.638 16.05 201.546 15.07C200.482 14.09 199.166 13.6 197.598 13.6C196.002 13.6 194.658 14.09 193.566 15.07C192.474 16.05 191.872 17.492 191.76 19.396H203.058Z" fill="#1CBCCF"/>
<path d="M78.906 42.798V52.5H77.632V44.758L74.538 52.5H73.404L70.296 44.786V52.5H69.022V42.798H70.548L73.992 50.946L77.38 42.798H78.906ZM88.1539 48.23C88.1539 48.5007 88.1352 48.734 88.0979 48.93H81.9519C81.9799 49.8073 82.2272 50.4653 82.6939 50.904C83.1699 51.3427 83.7485 51.562 84.4299 51.562C85.0459 51.562 85.5592 51.408 85.9699 51.1C86.3899 50.7827 86.6465 50.3627 86.7399 49.84H88.0979C88.0045 50.372 87.7945 50.848 87.4679 51.268C87.1505 51.688 86.7352 52.0147 86.2219 52.248C85.7085 52.4813 85.1299 52.598 84.4859 52.598C83.7485 52.598 83.0952 52.4393 82.5259 52.122C81.9565 51.8047 81.5085 51.352 81.1819 50.764C80.8645 50.1667 80.7059 49.4667 80.7059 48.664C80.7059 47.8613 80.8645 47.1613 81.1819 46.564C81.5085 45.9667 81.9565 45.5093 82.5259 45.192C83.0952 44.8747 83.7485 44.716 84.4859 44.716C85.2325 44.716 85.8812 44.8747 86.4319 45.192C86.9919 45.5093 87.4165 45.934 87.7059 46.466C88.0045 46.998 88.1539 47.586 88.1539 48.23ZM86.8659 48.314C86.8939 47.7447 86.8005 47.2687 86.5859 46.886C86.3712 46.5033 86.0772 46.2187 85.7039 46.032C85.3305 45.8453 84.9245 45.752 84.4859 45.752C83.7859 45.752 83.1979 45.9713 82.7219 46.41C82.2459 46.8393 81.9892 47.474 81.9519 48.314H86.8659ZM93.1102 44.716C93.8569 44.716 94.4869 44.9027 95.0002 45.276C95.5229 45.6493 95.8869 46.1487 96.0922 46.774V42.14H97.3662V52.5H96.0922V50.54C95.8869 51.1653 95.5229 51.6647 95.0002 52.038C94.4869 52.4113 93.8569 52.598 93.1102 52.598C92.4289 52.598 91.8222 52.4393 91.2902 52.122C90.7582 51.8047 90.3382 51.352 90.0302 50.764C89.7315 50.1667 89.5822 49.4667 89.5822 48.664C89.5822 47.8613 89.7315 47.1613 90.0302 46.564C90.3382 45.9667 90.7582 45.5093 91.2902 45.192C91.8222 44.8747 92.4289 44.716 93.1102 44.716ZM93.4742 45.85C92.6902 45.85 92.0602 46.102 91.5842 46.606C91.1175 47.1007 90.8842 47.7867 90.8842 48.664C90.8842 49.5413 91.1175 50.232 91.5842 50.736C92.0602 51.2307 92.6902 51.478 93.4742 51.478C93.9782 51.478 94.4262 51.3613 94.8182 51.128C95.2195 50.8947 95.5322 50.568 95.7562 50.148C95.9802 49.7187 96.0922 49.224 96.0922 48.664C96.0922 48.104 95.9802 47.6093 95.7562 47.18C95.5322 46.7507 95.2195 46.424 94.8182 46.2C94.4262 45.9667 93.9782 45.85 93.4742 45.85ZM99.3098 42.56C99.3098 42.3267 99.3891 42.14 99.5478 42C99.7065 41.8507 99.9165 41.776 100.178 41.776C100.439 41.776 100.649 41.8507 100.808 42C100.966 42.14 101.046 42.3267 101.046 42.56C101.046 42.7933 100.966 42.9847 100.808 43.134C100.649 43.274 100.439 43.344 100.178 43.344C99.9165 43.344 99.7065 43.274 99.5478 43.134C99.3891 42.9847 99.3098 42.7933 99.3098 42.56ZM100.808 44.814V52.5H99.5338V44.814H100.808ZM106.398 44.716C107.378 44.716 108.19 44.9773 108.834 45.5C109.478 46.0227 109.875 46.7227 110.024 47.6H108.68C108.587 47.0493 108.33 46.62 107.91 46.312C107.499 45.9947 106.986 45.836 106.37 45.836C105.922 45.836 105.511 45.9387 105.138 46.144C104.774 46.3493 104.48 46.6667 104.256 47.096C104.032 47.516 103.92 48.0387 103.92 48.664C103.92 49.2893 104.032 49.8167 104.256 50.246C104.48 50.666 104.774 50.9787 105.138 51.184C105.511 51.3893 105.922 51.492 106.37 51.492C106.986 51.492 107.499 51.3333 107.91 51.016C108.33 50.6987 108.587 50.2647 108.68 49.714H110.024C109.875 50.6007 109.478 51.3053 108.834 51.828C108.19 52.3413 107.378 52.598 106.398 52.598C105.661 52.598 105.007 52.4393 104.438 52.122C103.869 51.8047 103.421 51.352 103.094 50.764C102.777 50.1667 102.618 49.4667 102.618 48.664C102.618 47.8613 102.777 47.1613 103.094 46.564C103.421 45.9667 103.869 45.5093 104.438 45.192C105.007 44.8747 105.661 44.716 106.398 44.716ZM114.981 44.716C115.728 44.716 116.358 44.9027 116.871 45.276C117.394 45.6493 117.758 46.1487 117.963 46.774V44.814H119.237V52.5H117.963V50.54C117.758 51.1653 117.394 51.6647 116.871 52.038C116.358 52.4113 115.728 52.598 114.981 52.598C114.3 52.598 113.693 52.4393 113.161 52.122C112.629 51.8047 112.209 51.352 111.901 50.764C111.603 50.1667 111.453 49.4667 111.453 48.664C111.453 47.8613 111.603 47.1613 111.901 46.564C112.209 45.9667 112.629 45.5093 113.161 45.192C113.693 44.8747 114.3 44.716 114.981 44.716ZM115.345 45.85C114.561 45.85 113.931 46.102 113.455 46.606C112.989 47.1007 112.755 47.7867 112.755 48.664C112.755 49.5413 112.989 50.232 113.455 50.736C113.931 51.2307 114.561 51.478 115.345 51.478C115.849 51.478 116.297 51.3613 116.689 51.128C117.091 50.8947 117.403 50.568 117.627 50.148C117.851 49.7187 117.963 49.224 117.963 48.664C117.963 48.104 117.851 47.6093 117.627 47.18C117.403 46.7507 117.091 46.424 116.689 46.2C116.297 45.9667 115.849 45.85 115.345 45.85ZM122.679 42.14V52.5H121.405V42.14H122.679ZM136.04 42.63V52.5H134.752V47.936H129.74V52.5H128.466V42.63H129.74V46.9H134.752V42.63H136.04ZM145.288 48.23C145.288 48.5007 145.269 48.734 145.232 48.93H139.086C139.114 49.8073 139.361 50.4653 139.828 50.904C140.304 51.3427 140.882 51.562 141.564 51.562C142.18 51.562 142.693 51.408 143.104 51.1C143.524 50.7827 143.78 50.3627 143.874 49.84H145.232C145.138 50.372 144.928 50.848 144.602 51.268C144.284 51.688 143.869 52.0147 143.356 52.248C142.842 52.4813 142.264 52.598 141.62 52.598C140.882 52.598 140.229 52.4393 139.66 52.122C139.09 51.8047 138.642 51.352 138.316 50.764C137.998 50.1667 137.84 49.4667 137.84 48.664C137.84 47.8613 137.998 47.1613 138.316 46.564C138.642 45.9667 139.09 45.5093 139.66 45.192C140.229 44.8747 140.882 44.716 141.62 44.716C142.366 44.716 143.015 44.8747 143.566 45.192C144.126 45.5093 144.55 45.934 144.84 46.466C145.138 46.998 145.288 47.586 145.288 48.23ZM144 48.314C144.028 47.7447 143.934 47.2687 143.72 46.886C143.505 46.5033 143.211 46.2187 142.838 46.032C142.464 45.8453 142.058 45.752 141.62 45.752C140.92 45.752 140.332 45.9713 139.856 46.41C139.38 46.8393 139.123 47.474 139.086 48.314H144ZM150.244 44.716C150.991 44.716 151.621 44.9027 152.134 45.276C152.657 45.6493 153.021 46.1487 153.226 46.774V44.814H154.5V52.5H153.226V50.54C153.021 51.1653 152.657 51.6647 152.134 52.038C151.621 52.4113 150.991 52.598 150.244 52.598C149.563 52.598 148.956 52.4393 148.424 52.122C147.892 51.8047 147.472 51.352 147.164 50.764C146.865 50.1667 146.716 49.4667 146.716 48.664C146.716 47.8613 146.865 47.1613 147.164 46.564C147.472 45.9667 147.892 45.5093 148.424 45.192C148.956 44.8747 149.563 44.716 150.244 44.716ZM150.608 45.85C149.824 45.85 149.194 46.102 148.718 46.606C148.251 47.1007 148.018 47.7867 148.018 48.664C148.018 49.5413 148.251 50.232 148.718 50.736C149.194 51.2307 149.824 51.478 150.608 51.478C151.112 51.478 151.56 51.3613 151.952 51.128C152.353 50.8947 152.666 50.568 152.89 50.148C153.114 49.7187 153.226 49.224 153.226 48.664C153.226 48.104 153.114 47.6093 152.89 47.18C152.666 46.7507 152.353 46.424 151.952 46.2C151.56 45.9667 151.112 45.85 150.608 45.85ZM157.941 42.14V52.5H156.667V42.14H157.941ZM163.798 51.38V52.5H162.846C162.062 52.5 161.474 52.3133 161.082 51.94C160.699 51.5667 160.508 50.9413 160.508 50.064V45.92H159.36V44.814H160.508V42.896H161.796V44.814H163.784V45.92H161.796V50.092C161.796 50.5867 161.884 50.9273 162.062 51.114C162.248 51.2913 162.566 51.38 163.014 51.38H163.798ZM169.538 44.688C170.434 44.688 171.158 44.9773 171.708 45.556C172.259 46.1253 172.534 46.9513 172.534 48.034V52.5H171.26V48.146C171.26 47.3807 171.064 46.7927 170.672 46.382C170.28 45.9713 169.748 45.766 169.076 45.766C168.376 45.766 167.816 45.9947 167.396 46.452C166.976 46.9 166.766 47.558 166.766 48.426V52.5H165.492V42.14H166.766V46.634C166.962 46.0087 167.308 45.528 167.802 45.192C168.306 44.856 168.885 44.688 169.538 44.688ZM178.03 44.716C179.01 44.716 179.822 44.9773 180.466 45.5C181.11 46.0227 181.507 46.7227 181.656 47.6H180.312C180.219 47.0493 179.962 46.62 179.542 46.312C179.132 45.9947 178.618 45.836 178.002 45.836C177.554 45.836 177.144 45.9387 176.77 46.144C176.406 46.3493 176.112 46.6667 175.888 47.096C175.664 47.516 175.552 48.0387 175.552 48.664C175.552 49.2893 175.664 49.8167 175.888 50.246C176.112 50.666 176.406 50.9787 176.77 51.184C177.144 51.3893 177.554 51.492 178.002 51.492C178.618 51.492 179.132 51.3333 179.542 51.016C179.962 50.6987 180.219 50.2647 180.312 49.714H181.656C181.507 50.6007 181.11 51.3053 180.466 51.828C179.822 52.3413 179.01 52.598 178.03 52.598C177.293 52.598 176.64 52.4393 176.07 52.122C175.501 51.8047 175.053 51.352 174.726 50.764C174.409 50.1667 174.25 49.4667 174.25 48.664C174.25 47.8613 174.409 47.1613 174.726 46.564C175.053 45.9667 175.501 45.5093 176.07 45.192C176.64 44.8747 177.293 44.716 178.03 44.716ZM186.614 44.716C187.36 44.716 187.99 44.9027 188.504 45.276C189.026 45.6493 189.39 46.1487 189.596 46.774V44.814H190.87V52.5H189.596V50.54C189.39 51.1653 189.026 51.6647 188.504 52.038C187.99 52.4113 187.36 52.598 186.614 52.598C185.932 52.598 185.326 52.4393 184.794 52.122C184.262 51.8047 183.842 51.352 183.534 50.764C183.235 50.1667 183.086 49.4667 183.086 48.664C183.086 47.8613 183.235 47.1613 183.534 46.564C183.842 45.9667 184.262 45.5093 184.794 45.192C185.326 44.8747 185.932 44.716 186.614 44.716ZM186.978 45.85C186.194 45.85 185.564 46.102 185.088 46.606C184.621 47.1007 184.388 47.7867 184.388 48.664C184.388 49.5413 184.621 50.232 185.088 50.736C185.564 51.2307 186.194 51.478 186.978 51.478C187.482 51.478 187.93 51.3613 188.322 51.128C188.723 50.8947 189.036 50.568 189.26 50.148C189.484 49.7187 189.596 49.224 189.596 48.664C189.596 48.104 189.484 47.6093 189.26 47.18C189.036 46.7507 188.723 46.424 188.322 46.2C187.93 45.9667 187.482 45.85 186.978 45.85ZM194.311 46.368C194.563 45.836 194.932 45.4253 195.417 45.136C195.903 44.8373 196.481 44.688 197.153 44.688V46.074H196.761C196.043 46.074 195.455 46.2607 194.997 46.634C194.54 46.998 194.311 47.6047 194.311 48.454V52.5H193.037V44.814H194.311V46.368ZM205.62 48.23C205.62 48.5007 205.602 48.734 205.564 48.93H199.418C199.446 49.8073 199.694 50.4653 200.16 50.904C200.636 51.3427 201.215 51.562 201.896 51.562C202.512 51.562 203.026 51.408 203.436 51.1C203.856 50.7827 204.113 50.3627 204.206 49.84H205.564C205.471 50.372 205.261 50.848 204.934 51.268C204.617 51.688 204.202 52.0147 203.688 52.248C203.175 52.4813 202.596 52.598 201.952 52.598C201.215 52.598 200.562 52.4393 199.992 52.122C199.423 51.8047 198.975 51.352 198.648 50.764C198.331 50.1667 198.172 49.4667 198.172 48.664C198.172 47.8613 198.331 47.1613 198.648 46.564C198.975 45.9667 199.423 45.5093 199.992 45.192C200.562 44.8747 201.215 44.716 201.952 44.716C202.699 44.716 203.348 44.8747 203.898 45.192C204.458 45.5093 204.883 45.934 205.172 46.466C205.471 46.998 205.62 47.586 205.62 48.23ZM204.332 48.314C204.36 47.7447 204.267 47.2687 204.052 46.886C203.838 46.5033 203.544 46.2187 203.17 46.032C202.797 45.8453 202.391 45.752 201.952 45.752C201.252 45.752 200.664 45.9713 200.188 46.41C199.712 46.8393 199.456 47.474 199.418 48.314H204.332Z" fill="#A9A9A9"/>
<circle opacity="0.98" cx="18" cy="18.5" r="18" fill="#E8F9FB"/>
<circle opacity="0.55" cx="40" cy="18.5" r="18" fill="#B3EBF2"/>
<ellipse opacity="0.29" cx="29.5" cy="37.5" rx="18.5" ry="18" fill="#01BED5"/>
</svg>
